<svg width="23" height="21" viewBox="0 0 23 21" fill="none" xmlns="http://www.w3.org/2000/svg">
<path d="M5.205 2.21L3.795 0.79C0.5 4.063 0.5 6.435 0.5 9.5H1.5L2.5 9.437C2.5 6.509 2.5 4.896 5.205 2.21ZM19.204 0.79L17.796 2.21C20.5 4.896 20.5 6.509 20.5 9.5L22.5 9.437C22.5 6.435 22.5 4.063 19.204 0.79ZM11.5 20.5C12.1193 20.5008 12.7235 20.3086 13.2285 19.9502C13.7335 19.5917 14.1143 19.0849 14.318 18.5H8.682C8.88566 19.0849 9.26648 19.5917 9.77151 19.9502C10.2765 20.3086 10.8807 20.5008 11.5 20.5ZM18.5 13.086V8.5C18.5 5.283 16.315 2.573 13.355 1.758C13.062 1.02 12.346 0.5 11.5 0.5C10.654 0.5 9.938 1.02 9.645 1.758C6.684 2.573 4.5 5.283 4.5 8.5V13.086L2.793 14.793C2.69996 14.8857 2.62617 14.9959 2.57588 15.1172C2.5256 15.2386 2.49981 15.3687 2.5 15.5V16.5C2.5 16.7652 2.60536 17.0196 2.79289 17.2071C2.98043 17.3946 3.23478 17.5 3.5 17.5H19.5C19.7652 17.5 20.0196 17.3946 20.2071 17.2071C20.3946 17.0196 20.5 16.7652 20.5 16.5V15.5C20.5002 15.3687 20.4744 15.2386 20.4241 15.1172C20.3738 14.9959 20.3 14.8857 20.207 14.793L18.5 13.086Z" fill="#4684EB"/>
</svg>
