<svg width="19" height="19" viewBox="0 0 19 19" fill="none" xmlns="http://www.w3.org/2000/svg">
<path d="M18.3706 9.29812C17.6723 7.49173 16.4599 5.92955 14.8834 4.80468C13.3069 3.6798 11.4353 3.04153 9.49999 2.96875C7.56467 3.04153 5.6931 3.6798 4.11658 4.80468C2.54006 5.92955 1.32771 7.49173 0.629367 9.29812C0.582203 9.42858 0.582203 9.57142 0.629367 9.70188C1.32771 11.5083 2.54006 13.0704 4.11658 14.1953C5.6931 15.3202 7.56467 15.9585 9.49999 16.0312C11.4353 15.9585 13.3069 15.3202 14.8834 14.1953C16.4599 13.0704 17.6723 11.5083 18.3706 9.70188C18.4178 9.57142 18.4178 9.42858 18.3706 9.29812ZM9.49999 14.8438C6.35312 14.8438 3.02812 12.5103 1.8228 9.5C3.02812 6.48969 6.35312 4.15625 9.49999 4.15625C12.6469 4.15625 15.9719 6.48969 17.1772 9.5C15.9719 12.5103 12.6469 14.8438 9.49999 14.8438Z" fill="white"/>
<path d="M9.5 5.9375C8.79541 5.9375 8.10663 6.14644 7.52078 6.53789C6.93493 6.92934 6.47832 7.48573 6.20868 8.13669C5.93904 8.78765 5.86849 9.50395 6.00595 10.195C6.14341 10.8861 6.48271 11.5208 6.98093 12.0191C7.47916 12.5173 8.11393 12.8566 8.80499 12.994C9.49605 13.1315 10.2123 13.061 10.8633 12.7913C11.5143 12.5217 12.0707 12.0651 12.4621 11.4792C12.8536 10.8934 13.0625 10.2046 13.0625 9.5C13.0625 8.55517 12.6872 7.64903 12.0191 6.98093C11.351 6.31283 10.4448 5.9375 9.5 5.9375ZM9.5 11.875C9.03027 11.875 8.57109 11.7357 8.18052 11.4747C7.78996 11.2138 7.48555 10.8428 7.30579 10.4089C7.12603 9.9749 7.079 9.49736 7.17064 9.03666C7.26228 8.57596 7.48847 8.15277 7.82062 7.82062C8.15277 7.48847 8.57596 7.26227 9.03666 7.17063C9.49737 7.07899 9.9749 7.12603 10.4089 7.30579C10.8428 7.48554 11.2138 7.78995 11.4747 8.18052C11.7357 8.57109 11.875 9.03027 11.875 9.5C11.875 10.1299 11.6248 10.734 11.1794 11.1794C10.734 11.6248 10.1299 11.875 9.5 11.875Z" fill="white"/>
</svg>
