<svg width="14" height="20" viewBox="0 0 14 20" fill="none" xmlns="http://www.w3.org/2000/svg">
<path d="M12.3332 2H1.6665V8.53333H0.333172V2C0.333172 1.64638 0.473647 1.30724 0.723696 1.05719C0.973744 0.807144 1.31288 0.666668 1.6665 0.666668H12.3332C12.6868 0.666668 13.0259 0.807144 13.276 1.05719C13.526 1.30724 13.6665 1.64638 13.6665 2V18C13.6665 18.3536 13.526 18.6928 13.276 18.9428C13.0259 19.1929 12.6868 19.3333 12.3332 19.3333H1.6665C1.31288 19.3333 0.973744 19.1929 0.723696 18.9428C0.473647 18.6928 0.333172 18.3536 0.333172 18H12.3332V2Z" fill="white"/>
</svg>
