<svg width="22" height="16" viewBox="0 0 22 16" fill="none" xmlns="http://www.w3.org/2000/svg">
<path d="M0.5 3.125C0.5 1.676 1.676 0.5 3.125 0.5H18.875C20.324 0.5 21.5 1.676 21.5 3.125V12.875C21.5 13.5712 21.2234 14.2389 20.7312 14.7312C20.2389 15.2234 19.5712 15.5 18.875 15.5H3.125C2.42881 15.5 1.76113 15.2234 1.26884 14.7312C0.776562 14.2389 0.5 13.5712 0.5 12.875V3.125ZM3.125 2C2.82663 2 2.54048 2.11853 2.3295 2.3295C2.11853 2.54048 2 2.82663 2 3.125V12.875C2 13.496 2.504 14 3.125 14H18.875C19.1734 14 19.4595 13.8815 19.6705 13.6705C19.8815 13.4595 20 13.1734 20 12.875V3.125C20 2.82663 19.8815 2.54048 19.6705 2.3295C19.4595 2.11853 19.1734 2 18.875 2H3.125ZM13.25 5C13.0511 5 12.8603 5.07902 12.7197 5.21967C12.579 5.36032 12.5 5.55109 12.5 5.75C12.5 5.94891 12.579 6.13968 12.7197 6.28033C12.8603 6.42098 13.0511 6.5 13.25 6.5H17.75C17.9489 6.5 18.1397 6.42098 18.2803 6.28033C18.421 6.13968 18.5 5.94891 18.5 5.75C18.5 5.55109 18.421 5.36032 18.2803 5.21967C18.1397 5.07902 17.9489 5 17.75 5H13.25ZM13.25 9.5C13.0511 9.5 12.8603 9.57902 12.7197 9.71967C12.579 9.86032 12.5 10.0511 12.5 10.25C12.5 10.4489 12.579 10.6397 12.7197 10.7803C12.8603 10.921 13.0511 11 13.25 11H17.75C17.9489 11 18.1397 10.921 18.2803 10.7803C18.421 10.6397 18.5 10.4489 18.5 10.25C18.5 10.0511 18.421 9.86032 18.2803 9.71967C18.1397 9.57902 17.9489 9.5 17.75 9.5H13.25Z" fill="white"/>
<path d="M4.305 9.86312C4.3975 10.905 5.25063 11.6444 6.54938 11.74V12.5H7.20125V11.74C8.62 11.6281 9.5 10.8412 9.5 9.6775C9.5 8.68375 8.90812 8.10875 7.6525 7.785L7.20125 7.66813V5.29187C7.9025 5.36062 8.37563 5.73812 8.495 6.30188H9.41375C9.31 5.30188 8.45125 4.58437 7.20125 4.505V3.75H6.54938V4.52063C5.3375 4.66438 4.50562 5.44063 4.50562 6.49312C4.50562 7.40188 5.10938 8.045 6.16875 8.31625L6.55 8.4175V10.9369C5.83187 10.8306 5.3375 10.4369 5.21812 9.86312H4.305ZM6.42437 7.46562C5.7725 7.30125 5.42437 6.95 5.42437 6.45563C5.42437 5.86562 5.86438 5.43 6.54938 5.31312V7.4975L6.42437 7.46562ZM7.41875 8.63563C8.22313 8.8375 8.57625 9.1725 8.57625 9.74125C8.57625 10.4269 8.06 10.8837 7.20125 10.9531V8.58125L7.41875 8.63563Z" fill="white"/>
</svg>
