<svg width="21" height="21" viewBox="0 0 21 21" fill="none" xmlns="http://www.w3.org/2000/svg">
<path d="M2.7999 16H9.9831C9.7107 16.36 9.5031 16.7668 9.3711 17.2H2.7999C2.16338 17.2 1.55293 16.9471 1.10285 16.497C0.652759 16.047 0.399902 15.4365 0.399902 14.8V2.79999C0.399902 2.16347 0.652759 1.55302 1.10285 1.10294C1.55293 0.65285 2.16338 0.399994 2.7999 0.399994H14.7999C15.4364 0.399994 16.0469 0.65285 16.497 1.10294C16.947 1.55302 17.1999 2.16347 17.1999 2.79999V9.07839C16.8087 9.24639 16.4427 9.48999 16.1235 9.80919L15.9999 9.93279V2.79999C15.9999 2.48173 15.8735 2.17651 15.6484 1.95147C15.4234 1.72642 15.1182 1.59999 14.7999 1.59999H2.7999C2.48164 1.59999 2.17642 1.72642 1.95137 1.95147C1.72633 2.17651 1.5999 2.48173 1.5999 2.79999V14.8C1.5999 15.1183 1.72633 15.4235 1.95137 15.6485C2.17642 15.8736 2.48164 16 2.7999 16ZM12.3999 4.59999C12.3999 4.44086 12.4631 4.28825 12.5756 4.17573C12.6882 4.06321 12.8408 3.99999 12.9999 3.99999C13.159 3.99999 13.3116 4.06321 13.4242 4.17573C13.5367 4.28825 13.5999 4.44086 13.5999 4.59999V12.3328L12.5439 13.3888C12.451 13.2805 12.4 13.1426 12.3999 13V4.59999ZM3.9999 6.99999C3.9999 6.84086 4.06312 6.68825 4.17564 6.57573C4.28816 6.46321 4.44077 6.39999 4.5999 6.39999C4.75903 6.39999 4.91164 6.46321 5.02417 6.57573C5.13669 6.68825 5.1999 6.84086 5.1999 6.99999V13C5.1999 13.1591 5.13669 13.3117 5.02417 13.4243C4.91164 13.5368 4.75903 13.6 4.5999 13.6C4.44077 13.6 4.28816 13.5368 4.17564 13.4243C4.06312 13.3117 3.9999 13.1591 3.9999 13V6.99999ZM8.7999 8.79999C8.64077 8.79999 8.48816 8.86321 8.37564 8.97573C8.26311 9.08825 8.1999 9.24086 8.1999 9.39999V13C8.1999 13.1591 8.26311 13.3117 8.37564 13.4243C8.48816 13.5368 8.64077 13.6 8.7999 13.6C8.95903 13.6 9.11164 13.5368 9.22416 13.4243C9.33669 13.3117 9.3999 13.1591 9.3999 13V9.39999C9.3999 9.24086 9.33669 9.08825 9.22416 8.97573C9.11164 8.86321 8.95903 8.79999 8.7999 8.79999ZM11.1759 16.4524L16.9719 10.6564C17.393 10.2355 17.964 9.9991 18.5593 9.99921C19.1547 9.99932 19.7256 10.2359 20.1465 10.657C20.5674 11.078 20.8038 11.6491 20.8037 12.2444C20.8036 12.8398 20.567 13.4107 20.1459 13.8316L14.3499 19.6264C14.0123 19.9642 13.5892 20.2039 13.1259 20.32L11.3283 20.7688C11.1496 20.8133 10.9623 20.8109 10.7848 20.7617C10.6073 20.7125 10.4455 20.6182 10.3152 20.488C10.1849 20.3578 10.0905 20.1961 10.0411 20.0187C9.99174 19.8412 9.98912 19.654 10.0335 19.4752L10.4835 17.6776C10.5987 17.2144 10.8387 16.7896 11.1771 16.4536L11.1759 16.4524Z" fill="white"/>
</svg>
