<svg width="15" height="20" viewBox="0 0 15 20" fill="none" xmlns="http://www.w3.org/2000/svg">
<path d="M15 17.5V5.625L9.375 0H2.5C1.83696 0 1.20107 0.263392 0.732233 0.732233C0.263392 1.20107 0 1.83696 0 2.5V17.5C0 18.163 0.263392 18.7989 0.732233 19.2678C1.20107 19.7366 1.83696 20 2.5 20H12.5C13.163 20 13.7989 19.7366 14.2678 19.2678C14.7366 18.7989 15 18.163 15 17.5ZM9.375 3.75C9.375 4.24728 9.57254 4.72419 9.92417 5.07583C10.2758 5.42746 10.7527 5.625 11.25 5.625H13.75V17.5C13.75 17.8315 13.6183 18.1495 13.3839 18.3839C13.1495 18.6183 12.8315 18.75 12.5 18.75H2.5C2.16848 18.75 1.85054 18.6183 1.61612 18.3839C1.3817 18.1495 1.25 17.8315 1.25 17.5V2.5C1.25 2.16848 1.3817 1.85054 1.61612 1.61612C1.85054 1.3817 2.16848 1.25 2.5 1.25H9.375V3.75Z" fill="white"/>
</svg>
