<svg width="25" height="25" viewBox="0 0 25 25" fill="none" xmlns="http://www.w3.org/2000/svg">
<path d="M13.5251 1.32487C13.2531 1.05304 12.8844 0.90033 12.4999 0.90033C12.1154 0.90033 11.7467 1.05304 11.4748 1.32487L1.32476 11.4749C1.06063 11.7483 0.914476 12.1146 0.917779 12.4948C0.921083 12.875 1.07358 13.2387 1.34242 13.5075C1.61126 13.7763 1.97494 13.9288 2.35512 13.9321C2.73531 13.9354 3.10158 13.7893 3.37506 13.5252L3.79991 13.1003V22.65C3.79991 23.0346 3.95267 23.4034 4.2246 23.6753C4.49653 23.9473 4.86534 24.1 5.24991 24.1H8.14991C8.53447 24.1 8.90328 23.9473 9.17521 23.6753C9.44714 23.4034 9.59991 23.0346 9.59991 22.65V19.75C9.59991 19.3655 9.75268 18.9966 10.0246 18.7247C10.2965 18.4528 10.6653 18.3 11.0499 18.3H13.9499C14.3345 18.3 14.7033 18.4528 14.9752 18.7247C15.2471 18.9966 15.3999 19.3655 15.3999 19.75V22.65C15.3999 23.0346 15.5527 23.4034 15.8246 23.6753C16.0965 23.9473 16.4653 24.1 16.8499 24.1H19.7499C20.1345 24.1 20.5033 23.9473 20.7752 23.6753C21.0471 23.4034 21.1999 23.0346 21.1999 22.65V13.1003L21.6248 13.5252C21.8982 13.7893 22.2645 13.9354 22.6447 13.9321C23.0249 13.9288 23.3886 13.7763 23.6574 13.5075C23.9262 13.2387 24.0787 12.875 24.082 12.4948C24.0853 12.1146 23.9392 11.7483 23.6751 11.4749L13.5251 1.32487Z" fill="#CBC3F0"/>
</svg>
