<svg width="29" height="29" viewBox="0 0 29 29" fill="none" xmlns="http://www.w3.org/2000/svg">
<path d="M24.9168 6.34375H23.5676C23.5662 6.34375 23.5649 6.34429 23.564 6.34524C23.563 6.3462 23.5625 6.3475 23.5625 6.34885V23.5625C23.5625 24.0432 23.7535 24.5042 24.0934 24.8441C24.4333 25.184 24.8943 25.375 25.375 25.375C25.8557 25.375 26.3167 25.184 26.6566 24.8441C26.9965 24.5042 27.1875 24.0432 27.1875 23.5625V8.61447C27.1875 8.01224 26.9483 7.43467 26.5224 7.00883C26.0966 6.58299 25.519 6.34375 24.9168 6.34375Z" fill="#CBC3F0"/>
<path d="M21.75 23.5625V4.07812C21.75 3.7806 21.6914 3.48599 21.5775 3.21111C21.4637 2.93623 21.2968 2.68647 21.0864 2.47609C20.876 2.2657 20.6263 2.09882 20.3514 1.98496C20.0765 1.8711 19.7819 1.8125 19.4844 1.8125H4.07812C3.47724 1.8125 2.90097 2.0512 2.47609 2.47609C2.0512 2.90097 1.8125 3.47724 1.8125 4.07812V24.0156C1.8125 24.8569 2.14668 25.6636 2.74152 26.2585C3.33636 26.8533 4.14314 27.1875 4.98438 27.1875H24.4036C24.4122 27.1876 24.4207 27.1859 24.4286 27.1827C24.4366 27.1794 24.4438 27.1747 24.4498 27.1686C24.4559 27.1625 24.4607 27.1553 24.4639 27.1474C24.4672 27.1394 24.4688 27.1309 24.4688 27.1224C24.4687 27.1081 24.464 27.0943 24.4553 27.083C24.4466 27.0718 24.4344 27.0637 24.4206 27.0601C23.654 26.8498 22.9776 26.3937 22.4951 25.7619C22.0127 25.1301 21.7509 24.3574 21.75 23.5625ZM5.4375 7.25C5.4375 7.00965 5.53298 6.77914 5.70293 6.60918C5.87289 6.43923 6.1034 6.34375 6.34375 6.34375H9.96875C10.2091 6.34375 10.4396 6.43923 10.6096 6.60918C10.7795 6.77914 10.875 7.00965 10.875 7.25V10.875C10.875 11.1154 10.7795 11.3459 10.6096 11.5158C10.4396 11.6858 10.2091 11.7812 9.96875 11.7812H6.34375C6.1034 11.7812 5.87289 11.6858 5.70293 11.5158C5.53298 11.3459 5.4375 11.1154 5.4375 10.875V7.25ZM17.2188 22.6562H6.36924C5.88156 22.6562 5.46299 22.2813 5.43863 21.7936C5.43273 21.6711 5.45176 21.5486 5.49459 21.4337C5.53741 21.3187 5.60312 21.2136 5.68775 21.1248C5.77238 21.036 5.87416 20.9653 5.98692 20.917C6.09968 20.8687 6.22107 20.8438 6.34375 20.8438H17.1933C17.6809 20.8438 18.0995 21.2187 18.1239 21.7064C18.1298 21.8289 18.1107 21.9514 18.0679 22.0663C18.0251 22.1813 17.9594 22.2864 17.8748 22.3752C17.7901 22.464 17.6883 22.5347 17.5756 22.583C17.4628 22.6313 17.3414 22.6562 17.2188 22.6562ZM17.2188 19.0312H6.36924C5.88156 19.0312 5.46299 18.6563 5.43863 18.1686C5.43273 18.0461 5.45176 17.9236 5.49459 17.8087C5.53741 17.6937 5.60312 17.5886 5.68775 17.4998C5.77238 17.411 5.87416 17.3403 5.98692 17.292C6.09968 17.2437 6.22107 17.2188 6.34375 17.2188H17.1933C17.6809 17.2188 18.0995 17.5937 18.1239 18.0814C18.1298 18.2039 18.1107 18.3264 18.0679 18.4413C18.0251 18.5563 17.9594 18.6614 17.8748 18.7502C17.7901 18.839 17.6883 18.9097 17.5756 18.958C17.4628 19.0063 17.3414 19.0312 17.2188 19.0312ZM17.2188 15.4062H6.36924C5.88156 15.4062 5.46299 15.0313 5.43863 14.5436C5.43273 14.4211 5.45176 14.2986 5.49459 14.1837C5.53741 14.0687 5.60312 13.9636 5.68775 13.8748C5.77238 13.786 5.87416 13.7153 5.98692 13.667C6.09968 13.6187 6.22107 13.5938 6.34375 13.5938H17.1933C17.6809 13.5938 18.0995 13.9687 18.1239 14.4564C18.1298 14.5789 18.1107 14.7014 18.0679 14.8163C18.0251 14.9313 17.9594 15.0364 17.8748 15.1252C17.7901 15.214 17.6883 15.2847 17.5756 15.333C17.4628 15.3813 17.3414 15.4062 17.2188 15.4062ZM17.2188 11.7812H13.6192C13.1316 11.7812 12.713 11.4063 12.6886 10.9186C12.6827 10.7961 12.7018 10.6736 12.7446 10.5587C12.7874 10.4437 12.8531 10.3386 12.9377 10.2498C13.0224 10.161 13.1242 10.0903 13.2369 10.042C13.3497 9.99368 13.4711 9.96876 13.5938 9.96875H17.1933C17.6809 9.96875 18.0995 10.3437 18.1239 10.8314C18.1298 10.9539 18.1107 11.0764 18.0679 11.1913C18.0251 11.3063 17.9594 11.4114 17.8748 11.5002C17.7901 11.589 17.6883 11.6597 17.5756 11.708C17.4628 11.7563 17.3414 11.7812 17.2188 11.7812ZM17.2188 8.15625H13.6192C13.1316 8.15625 12.713 7.78129 12.6886 7.29361C12.6827 7.17108 12.7018 7.04862 12.7446 6.93366C12.7874 6.8187 12.8531 6.71364 12.9377 6.62482C13.0224 6.53601 13.1242 6.46531 13.2369 6.41699C13.3497 6.36868 13.4711 6.34376 13.5938 6.34375H17.1933C17.6809 6.34375 18.0995 6.71871 18.1239 7.20639C18.1298 7.32892 18.1107 7.45138 18.0679 7.56634C18.0251 7.6813 17.9594 7.78636 17.8748 7.87518C17.7901 7.96399 17.6883 8.03469 17.5756 8.08301C17.4628 8.13132 17.3414 8.15624 17.2188 8.15625Z" fill="#CBC3F0"/>
</svg>
