<svg width="44" height="36" viewBox="0 0 44 36" fill="none" xmlns="http://www.w3.org/2000/svg">
<path d="M8.99992 20.1666H28.4999V15.8333H8.99992V20.1666ZM8.99992 13.6666H28.4999V9.33329H8.99992V13.6666ZM4.66659 35.3333C3.47492 35.3333 2.45514 34.9093 1.60725 34.0615C0.757919 33.2121 0.333252 32.1916 0.333252 31V4.99996C0.333252 3.80829 0.757919 2.78851 1.60725 1.94063C2.45514 1.09129 3.47492 0.666626 4.66659 0.666626H39.3333C40.5249 0.666626 41.5454 1.09129 42.3948 1.94063C43.2427 2.78851 43.6666 3.80829 43.6666 4.99996V31C43.6666 32.1916 43.2427 33.2121 42.3948 34.0615C41.5454 34.9093 40.5249 35.3333 39.3333 35.3333H4.66659ZM4.66659 31V4.99996V31ZM4.66659 31H39.3333V4.99996H4.66659V31Z" fill="#4684EB"/>
</svg>
