<svg width="31" height="29" viewBox="0 0 31 29" fill="none" xmlns="http://www.w3.org/2000/svg">
<g clip-path="url(#clip0_121_12)">
<path fill-rule="evenodd" clip-rule="evenodd" d="M16.2907 19.276V15.0927C16.2907 13.7352 17.3293 12.6313 18.6089 12.6313H27.1222V10.025C27.1222 8.78884 26.3899 7.75571 25.3876 7.41859V7.4204L22.3952 7.39503L22.3589 7.2899H8.92651L8.67095 7.3769L3.93307 7.37328L3.92401 7.33521C2.77126 7.55271 1.84326 8.59671 1.84326 9.93978V24.3546C1.84326 25.8626 3.01776 27.173 4.36445 27.173H24.6898C26.0365 27.173 27.124 25.9478 27.124 24.4398V21.8062H18.6107C17.3311 21.8062 16.2907 20.6335 16.2907 19.276Z" fill="#CBC3F0"/>
<path fill-rule="evenodd" clip-rule="evenodd" d="M28.9927 14.6106H19.9175C18.9587 14.6106 18.1812 15.4588 18.1812 16.5047V17.9837C18.1812 19.0277 18.9587 19.8759 19.9175 19.8759H28.9927C29.9515 19.8759 30.7309 19.0277 30.7309 17.9837V16.5047C30.7309 15.457 29.9515 14.6106 28.9927 14.6106ZM23.6187 18.154H19.8813V16.3125H23.6187V18.154Z" fill="#CBC3F0"/>
<path fill-rule="evenodd" clip-rule="evenodd" d="M8.92843 7.2899L20.9471 3.17734L22.3609 7.2899H24.6899C24.9346 7.2899 25.1666 7.34246 25.3896 7.41677L22.872 0.0924606L3.71387 6.47427L3.92593 7.33702C4.06912 7.30983 4.21593 7.29171 4.36455 7.29171H8.92843V7.2899Z" fill="#CBC3F0"/>
</g>
<defs>
<clipPath id="clip0_121_12">
<rect width="30.8125" height="29" fill="white"/>
</clipPath>
</defs>
</svg>
