<svg width="23" height="21" viewBox="0 0 23 21" fill="none" xmlns="http://www.w3.org/2000/svg">
<path d="M18 6.16675C18.862 6.16675 19.6886 6.50916 20.2981 7.11865C20.9076 7.72814 21.25 8.55479 21.25 9.41675C21.25 10.2787 20.9076 11.1054 20.2981 11.7148C19.6886 12.3243 18.862 12.6667 18 12.6667" stroke="#4684EB" stroke-width="2" stroke-linecap="round" stroke-linejoin="round"/>
<path d="M9.3335 6.16675V18.0834C9.3335 18.3707 9.21936 18.6463 9.0162 18.8494C8.81303 19.0526 8.53748 19.1667 8.25016 19.1667H7.16683C6.87951 19.1667 6.60396 19.0526 6.4008 18.8494C6.19763 18.6463 6.0835 18.3707 6.0835 18.0834V12.6667" stroke="#4684EB" stroke-width="2" stroke-linecap="round" stroke-linejoin="round"/>
<path d="M11.5 6.16669L16.401 2.08252C16.5434 1.96391 16.7167 1.88834 16.9005 1.86467C17.0843 1.84101 17.2711 1.87022 17.4389 1.9489C17.6067 2.02757 17.7486 2.15245 17.848 2.30889C17.9474 2.46533 18.0001 2.64685 18 2.83219V16.0012C18.0001 16.1865 17.9474 16.3681 17.848 16.5245C17.7486 16.6809 17.6067 16.8058 17.4389 16.8845C17.2711 16.9632 17.0843 16.9924 16.9005 16.9687C16.7167 16.945 16.5434 16.8695 16.401 16.7509L11.5 12.6667H2.83333C2.54602 12.6667 2.27047 12.5526 2.0673 12.3494C1.86414 12.1462 1.75 11.8707 1.75 11.5834V7.25002C1.75 6.96271 1.86414 6.68716 2.0673 6.48399C2.27047 6.28083 2.54602 6.16669 2.83333 6.16669H11.5Z" stroke="#4684EB" stroke-width="2" stroke-linecap="round" stroke-linejoin="round"/>
</svg>
