<svg width="21" height="19" viewBox="0 0 21 19" fill="none" xmlns="http://www.w3.org/2000/svg">
<path d="M17.5 4.5H16.5V3.5C16.5 2.70435 16.1839 1.94129 15.6213 1.37868C15.0587 0.816071 14.2956 0.5 13.5 0.5H3.5C2.70435 0.5 1.94129 0.816071 1.37868 1.37868C0.816071 1.94129 0.5 2.70435 0.5 3.5V15.5C0.5 16.2956 0.816071 17.0587 1.37868 17.6213C1.94129 18.1839 2.70435 18.5 3.5 18.5H17.5C18.2956 18.5 19.0587 18.1839 19.6213 17.6213C20.1839 17.0587 20.5 16.2956 20.5 15.5V7.5C20.5 6.70435 20.1839 5.94129 19.6213 5.37868C19.0587 4.81607 18.2956 4.5 17.5 4.5ZM3.5 2.5H13.5C13.7652 2.5 14.0196 2.60536 14.2071 2.79289C14.3946 2.98043 14.5 3.23478 14.5 3.5V4.5H3.5C3.23478 4.5 2.98043 4.39464 2.79289 4.20711C2.60536 4.01957 2.5 3.76522 2.5 3.5C2.5 3.23478 2.60536 2.98043 2.79289 2.79289C2.98043 2.60536 3.23478 2.5 3.5 2.5ZM18.5 12.5H17.5C17.2348 12.5 16.9804 12.3946 16.7929 12.2071C16.6054 12.0196 16.5 11.7652 16.5 11.5C16.5 11.2348 16.6054 10.9804 16.7929 10.7929C16.9804 10.6054 17.2348 10.5 17.5 10.5H18.5V12.5ZM18.5 8.5H17.5C16.7044 8.5 15.9413 8.81607 15.3787 9.37868C14.8161 9.94129 14.5 10.7044 14.5 11.5C14.5 12.2956 14.8161 13.0587 15.3787 13.6213C15.9413 14.1839 16.7044 14.5 17.5 14.5H18.5V15.5C18.5 15.7652 18.3946 16.0196 18.2071 16.2071C18.0196 16.3946 17.7652 16.5 17.5 16.5H3.5C3.23478 16.5 2.98043 16.3946 2.79289 16.2071C2.60536 16.0196 2.5 15.7652 2.5 15.5V6.33C2.82127 6.44302 3.15943 6.50051 3.5 6.5H17.5C17.7652 6.5 18.0196 6.60536 18.2071 6.79289C18.3946 6.98043 18.5 7.23478 18.5 7.5V8.5Z" fill="#4684EB"/>
</svg>
